<svg width="24" height="24" viewBox="0 0 24 24" fill="none" xmlns="http://www.w3.org/2000/svg">
<path fill-rule="evenodd" clip-rule="evenodd" d="M14.1863 18.236L6.86617 10.9159L12.9842 4.79792C13.6481 4.13403 14.7245 4.13403 15.3883 4.79792L20.3043 9.71386C20.9682 10.3777 20.9682 11.4541 20.3043 12.118L14.1863 18.236ZM14.1863 18.6603L13.9741 18.4482L12.5199 16.994L10.099 19.4149L3 17.909L8.2175 12.6915L6.65403 11.1281L6.4419 10.9159L6.65403 10.7038L12.7721 4.58579C13.5531 3.80474 14.8194 3.80474 15.6005 4.58579L20.5164 9.50172C21.2975 10.2828 21.2975 11.5491 20.5164 12.3302L14.3984 18.4482L14.1863 18.6603Z" fill="black"/>
<path d="M6.86617 10.9159L6.51261 10.5624L6.15906 10.9159L6.51261 11.2695L6.86617 10.9159ZM14.1863 18.236L13.8327 18.5896L14.1863 18.9431L14.5398 18.5896L14.1863 18.236ZM12.9842 4.79792L13.3377 5.15147L13.3377 5.15147L12.9842 4.79792ZM15.3883 4.79792L15.0348 5.15147L15.0348 5.15147L15.3883 4.79792ZM20.3043 9.71386L20.6578 9.3603L20.6578 9.3603L20.3043 9.71386ZM20.3043 12.118L19.9507 11.7645L19.9507 11.7645L20.3043 12.118ZM13.9741 18.4482L14.3277 18.0946L14.3277 18.0946L13.9741 18.4482ZM14.1863 18.6603L13.8327 19.0139L14.1863 19.3674L14.5398 19.0139L14.1863 18.6603ZM12.5199 16.994L12.8735 16.6404L12.5199 16.2869L12.1664 16.6404L12.5199 16.994ZM10.099 19.4149L9.99525 19.904L10.2607 19.9603L10.4526 19.7684L10.099 19.4149ZM3 17.909L2.64645 17.5555L1.99496 18.207L2.89625 18.3981L3 17.909ZM8.2175 12.6915L8.57105 13.0451L8.9246 12.6915L8.57105 12.338L8.2175 12.6915ZM6.65403 11.1281L7.00759 10.7745L7.00759 10.7745L6.65403 11.1281ZM6.4419 10.9159L6.08835 10.5624L5.73479 10.9159L6.08835 11.2695L6.4419 10.9159ZM6.65403 10.7038L7.00759 11.0574L7.00759 11.0574L6.65403 10.7038ZM12.7721 4.58579L13.1256 4.93934L13.1256 4.93934L12.7721 4.58579ZM15.6005 4.58579L15.2469 4.93934L15.2469 4.93934L15.6005 4.58579ZM20.5164 9.50172L20.87 9.14817L20.87 9.14817L20.5164 9.50172ZM20.5164 12.3302L20.87 12.6837L20.87 12.6837L20.5164 12.3302ZM6.51261 11.2695L13.8327 18.5896L14.5398 17.8825L7.21972 10.5624L6.51261 11.2695ZM12.6306 4.44437L6.51261 10.5624L7.21972 11.2695L13.3377 5.15147L12.6306 4.44437ZM15.7419 4.44436C14.8827 3.58521 13.4898 3.58521 12.6306 4.44437L13.3377 5.15147C13.8064 4.68284 14.5662 4.68284 15.0348 5.15147L15.7419 4.44436ZM20.6578 9.3603L15.7419 4.44436L15.0348 5.15147L19.9507 10.0674L20.6578 9.3603ZM20.6578 12.4716C21.517 11.6124 21.517 10.2195 20.6578 9.3603L19.9507 10.0674C20.4194 10.536 20.4194 11.2958 19.9507 11.7645L20.6578 12.4716ZM14.5398 18.5896L20.6578 12.4716L19.9507 11.7645L13.8327 17.8825L14.5398 18.5896ZM13.6206 18.8017L13.8327 19.0139L14.5398 18.3068L14.3277 18.0946L13.6206 18.8017ZM12.1664 17.3475L13.6206 18.8017L14.3277 18.0946L12.8735 16.6404L12.1664 17.3475ZM10.4526 19.7684L12.8735 17.3475L12.1664 16.6404L9.74545 19.0613L10.4526 19.7684ZM2.89625 18.3981L9.99525 19.904L10.2028 18.9258L3.10375 17.4199L2.89625 18.3981ZM7.86394 12.338L2.64645 17.5555L3.35355 18.2626L8.57105 13.0451L7.86394 12.338ZM6.30048 11.4816L7.86394 13.0451L8.57105 12.338L7.00759 10.7745L6.30048 11.4816ZM6.08835 11.2695L6.30048 11.4816L7.00759 10.7745L6.79545 10.5624L6.08835 11.2695ZM6.30048 10.3503L6.08835 10.5624L6.79545 11.2695L7.00759 11.0574L6.30048 10.3503ZM12.4185 4.23223L6.30048 10.3503L7.00759 11.0574L13.1256 4.93934L12.4185 4.23223ZM15.954 4.23223C14.9777 3.25592 13.3948 3.25592 12.4185 4.23223L13.1256 4.93934C13.7114 4.35355 14.6611 4.35355 15.2469 4.93934L15.954 4.23223ZM20.87 9.14817L15.954 4.23223L15.2469 4.93934L20.1629 9.85528L20.87 9.14817ZM20.87 12.6837C21.8463 11.7074 21.8463 10.1245 20.87 9.14817L20.1629 9.85528C20.7487 10.4411 20.7487 11.3908 20.1629 11.9766L20.87 12.6837ZM14.752 18.8017L20.87 12.6837L20.1629 11.9766L14.0448 18.0946L14.752 18.8017ZM14.5398 19.0139L14.752 18.8017L14.0448 18.0946L13.8327 18.3068L14.5398 19.0139Z" fill="black"/>
</svg>
